<svg width="145" height="40" viewBox="0 0 145 40" fill="none" xmlns="http://www.w3.org/2000/svg">
<path fill-rule="evenodd" clip-rule="evenodd" d="M16.4212 4H4V10.4L29.6 36H36V23.6L16.4212 4Z" fill="#3B82F6"/>
<path d="M36 4.0001L26.4 4.0001L26.4 13.6001L36 13.6001L36 4.0001Z" fill="#3B82F6"/>
<path d="M16.8 23.2L3.99999 23.2L16.8 36L16.8 23.2Z" fill="#3B82F6"/>
<path d="M59.4314 29.0292C57.6673 29.0292 56.1325 28.7293 54.8271 28.1295C53.5216 27.5121 52.4367 26.7094 51.5723 25.7215C50.7079 24.716 50.064 23.6311 49.6406 22.4668C49.2172 21.3025 49.0055 20.1734 49.0055 19.0797V18.4975C49.0055 17.2803 49.2261 16.0895 49.6671 14.9252C50.1081 13.7433 50.7696 12.676 51.6517 11.7234C52.5337 10.7708 53.6187 10.0122 54.9065 9.44769C56.2119 8.88318 57.7202 8.60092 59.4314 8.60092C61.1249 8.60092 62.6156 8.88318 63.9034 9.44769C65.2088 10.0122 66.3026 10.7708 67.1846 11.7234C68.0667 12.676 68.7282 13.7433 69.1692 14.9252C69.6279 16.0895 69.8572 17.2803 69.8572 18.4975V19.0797C69.8572 20.1734 69.6367 21.3025 69.1957 22.4668C68.7723 23.6311 68.1284 24.716 67.264 25.7215C66.3996 26.7094 65.3147 27.5121 64.0092 28.1295C62.7038 28.7293 61.1778 29.0292 59.4314 29.0292ZM59.4314 24.4249C60.2782 24.4249 61.0367 24.2838 61.7071 24.0015C62.3774 23.7193 62.9508 23.3224 63.4271 22.8108C63.9034 22.2992 64.265 21.7082 64.512 21.0378C64.759 20.3498 64.8825 19.6089 64.8825 18.8151C64.8825 17.9683 64.7502 17.2009 64.4855 16.5129C64.2386 15.8249 63.8769 15.2339 63.4006 14.74C62.9243 14.2461 62.351 13.8668 61.6806 13.6022C61.0103 13.3375 60.2605 13.2052 59.4314 13.2052C58.5846 13.2052 57.8261 13.3375 57.1557 13.6022C56.4853 13.8668 55.912 14.2461 55.4357 14.74C54.9594 15.2339 54.5977 15.8249 54.3508 16.5129C54.1038 17.2009 53.9803 17.9683 53.9803 18.8151C53.9803 19.6089 54.1038 20.3498 54.3508 21.0378C54.5977 21.7082 54.9594 22.2992 55.4357 22.8108C55.912 23.3224 56.4853 23.7193 57.1557 24.0015C57.8261 24.2838 58.5846 24.4249 59.4314 24.4249ZM72.8277 28.5V9.02431H77.7496V28.5H72.8277ZM84.4708 28.5L79.0462 20.2969H84.3914L90.1336 28.5H84.4708ZM76.5059 22.5726V18.7886H81.1367C81.7188 18.7886 82.2216 18.6739 82.645 18.4446C83.0684 18.2153 83.3947 17.8889 83.6241 17.4655C83.871 17.0422 83.9945 16.5482 83.9945 15.9837C83.9945 15.4015 83.871 14.8988 83.6241 14.4754C83.3947 14.052 83.0684 13.7256 82.645 13.4963C82.2216 13.267 81.7188 13.1523 81.1367 13.1523H76.5059V9.02431H80.8456C82.5215 9.02431 83.9681 9.2801 85.1853 9.79169C86.4025 10.2856 87.3375 11.0266 87.9902 12.0145C88.6429 12.9847 88.9693 14.1931 88.9693 15.6397V16.0631C88.9693 17.5096 88.6341 18.7181 87.9637 19.6883C87.311 20.6409 86.3761 21.3642 85.1588 21.8582C83.9592 22.3345 82.5215 22.5726 80.8456 22.5726H76.5059ZM101.55 29.0292C99.7327 29.0292 98.1714 28.7293 96.866 28.1295C95.5606 27.5121 94.4933 26.7094 93.6641 25.7215C92.835 24.7336 92.2264 23.6575 91.8383 22.4932C91.4502 21.3289 91.2561 20.1911 91.2561 19.0797V18.4975C91.2561 17.2979 91.459 16.116 91.8648 14.9517C92.2705 13.7697 92.8791 12.7025 93.6906 11.7498C94.5197 10.7972 95.5517 10.0387 96.7866 9.47415C98.0215 8.892 99.468 8.60092 101.126 8.60092C102.908 8.60092 104.478 8.92728 105.836 9.58C107.212 10.2327 108.315 11.1412 109.144 12.3055C109.973 13.4522 110.458 14.7841 110.6 16.3012H105.678C105.572 15.7191 105.316 15.1987 104.91 14.74C104.505 14.2637 103.975 13.8932 103.323 13.6286C102.688 13.3464 101.955 13.2052 101.126 13.2052C100.332 13.2052 99.6268 13.3464 99.0094 13.6286C98.4096 13.8932 97.898 14.2813 97.4746 14.7929C97.0689 15.2869 96.7601 15.8778 96.5484 16.5658C96.3368 17.2538 96.2309 18.0036 96.2309 18.8151C96.2309 19.6266 96.3456 20.3851 96.5749 21.0908C96.8042 21.7788 97.1394 22.3874 97.5804 22.9166C98.0215 23.4282 98.5772 23.8251 99.2475 24.1074C99.9179 24.3896 100.685 24.5308 101.55 24.5308C102.643 24.5308 103.587 24.3014 104.381 23.8428C105.175 23.3841 105.731 22.7755 106.048 22.0169L105.678 24.9277V20.7203H110.176V24.6895C109.365 26.0832 108.209 27.1593 106.71 27.9178C105.228 28.6588 103.508 29.0292 101.55 29.0292ZM101.02 21.6729V18.2329H111.764V21.6729H101.02ZM114.304 28.5V9.18308H119.226V28.5H114.304ZM123.193 28.5V9.18308H131.263L137.693 24.5837H138.62L138.09 25.06V9.18308H142.695V28.5H134.571L128.141 13.0994H127.215L127.744 12.6231V28.5H123.193Z" fill="#F8FAFC"/>
</svg>
