<svg width="32" height="33" viewBox="0 0 32 33" fill="none" xmlns="http://www.w3.org/2000/svg">
<path d="M16 4.21204C9.6 4.21204 4 9.3587 4 16.212C4 19.0387 4.98667 21.6387 6.62667 23.692L4 26.332L5.88 28.212L8.50667 25.5854C10.5733 27.2254 13.1733 28.212 16 28.212C19.0667 28.212 22.1467 27.0387 24.48 24.692C26.8267 22.3587 28 19.2787 28 16.212V4.21204H16ZM25.3333 16.212C25.3333 18.7054 24.36 21.052 22.6 22.812C20.84 24.572 18.4933 25.5454 16 25.5454C10.8533 25.5454 6.66667 21.3587 6.66667 16.212C6.66667 13.6787 7.65333 11.3054 9.46667 9.5587C11.2267 7.82537 13.5467 6.8787 16 6.8787H25.3333V16.212Z" fill="#3B82F6"/>
<path d="M11.28 17.052L16.68 17.5854L13.4267 22.0254C13.28 22.2387 13.2933 22.532 13.48 22.7187C13.68 22.9187 14.0133 22.932 14.2267 22.732L21.1067 16.5587C21.5467 16.1587 21.3067 15.4254 20.7067 15.372L15.3067 14.8387L18.56 10.3987C18.7067 10.1854 18.6933 9.89204 18.5067 9.70537C18.3067 9.50537 17.9733 9.49204 17.76 9.69204L10.88 15.8654C10.4533 16.2654 10.6933 16.9987 11.28 17.052Z" fill="#3B82F6"/>
</svg>
