<svg width="32" height="33" viewBox="0 0 32 33" fill="none" xmlns="http://www.w3.org/2000/svg">
<path d="M21.3335 6.23741H20.0002V3.57074H17.3335V6.23741H14.6668V3.57074H12.0002V6.23741H10.6668C7.72016 6.23741 5.3335 8.62407 5.3335 11.5707V24.9041C5.3335 27.8507 7.72016 30.2374 10.6668 30.2374H21.3335C24.2802 30.2374 26.6668 27.8507 26.6668 24.9041V11.5707C26.6668 8.62407 24.2802 6.23741 21.3335 6.23741ZM24.0002 24.9041C24.0002 26.3707 22.8002 27.5707 21.3335 27.5707H10.6668C9.20016 27.5707 8.00016 26.3707 8.00016 24.9041V11.5707C8.00016 10.1041 9.20016 8.90407 10.6668 8.90407H21.3335C22.8002 8.90407 24.0002 10.1041 24.0002 11.5707V24.9041Z" fill="#3B82F6"/>
<path d="M12.6668 21.6241C12.6668 23.4374 14.1602 24.9041 16.0002 24.9041C17.8402 24.9041 19.3335 23.4374 19.3335 21.6241C19.3335 20.1707 18.7335 19.7441 16.0002 16.5707C13.2402 19.7707 12.6668 20.1841 12.6668 21.6241Z" fill="#3B82F6"/>
<path d="M21.3335 11.5707H10.6668V14.2374H21.3335V11.5707Z" fill="#3B82F6"/>
</svg>
