<svg width="64" height="64" viewBox="0 0 64 64" fill="none" xmlns="http://www.w3.org/2000/svg">
<rect width="64" height="64" rx="32" fill="#3B82F6"/>
<path d="M32 36C34.2091 36 36 34.2091 36 32C36 29.7909 34.2091 28 32 28C29.7909 28 28 29.7909 28 32C28 34.2091 29.7909 36 32 36Z" fill="white"/>
<path d="M37.5 19.5H26.5C24.6435 19.5 22.863 20.2375 21.5503 21.5503C20.2375 22.863 19.5 24.6435 19.5 26.5V37.5C19.5 39.3565 20.2375 41.137 21.5503 42.4497C22.863 43.7625 24.6435 44.5 26.5 44.5H37.5C39.3565 44.5 41.137 43.7625 42.4497 42.4497C43.7625 41.137 44.5 39.3565 44.5 37.5V26.5C44.5 24.6435 43.7625 22.863 42.4497 21.5503C41.137 20.2375 39.3565 19.5 37.5 19.5ZM32 38C30.8133 38 29.6533 37.6481 28.6666 36.9888C27.6799 36.3295 26.9108 35.3925 26.4567 34.2961C26.0026 33.1997 25.8838 31.9933 26.1153 30.8295C26.3468 29.6656 26.9182 28.5965 27.7574 27.7574C28.5965 26.9182 29.6656 26.3468 30.8295 26.1153C31.9933 25.8838 33.1997 26.0026 34.2961 26.4567C35.3925 26.9108 36.3295 27.6799 36.9888 28.6666C37.6481 29.6533 38 30.8133 38 32C38 33.5913 37.3679 35.1174 36.2426 36.2426C35.1174 37.3679 33.5913 38 32 38ZM38.5 27C38.2033 27 37.9133 26.912 37.6666 26.7472C37.42 26.5824 37.2277 26.3481 37.1142 26.074C37.0007 25.7999 36.9709 25.4983 37.0288 25.2074C37.0867 24.9164 37.2296 24.6491 37.4393 24.4393C37.6491 24.2296 37.9164 24.0867 38.2074 24.0288C38.4983 23.9709 38.7999 24.0006 39.074 24.1142C39.3481 24.2277 39.5824 24.42 39.7472 24.6666C39.912 24.9133 40 25.2033 40 25.5C40 25.8978 39.842 26.2794 39.5607 26.5607C39.2794 26.842 38.8978 27 38.5 27Z" fill="white"/>
</svg>
