<svg width="94" height="22" viewBox="0 0 94 22" fill="none" xmlns="http://www.w3.org/2000/svg">
<path d="M10.4258 21.2142C8.66174 21.2142 7.12697 20.9143 5.82154 20.3145C4.5161 19.6971 3.43118 18.8944 2.56677 17.9065C1.70236 16.901 1.05846 15.816 0.635077 14.6517C0.211692 13.4874 0 12.3584 0 11.2647V10.6825C0 9.46527 0.220513 8.2745 0.661538 7.1102C1.10256 5.92825 1.7641 4.86097 2.64615 3.90835C3.52821 2.95574 4.61313 2.19717 5.90092 1.63266C7.20636 1.06815 8.71467 0.785889 10.4258 0.785889C12.1194 0.785889 13.6101 1.06815 14.8978 1.63266C16.2033 2.19717 17.297 2.95574 18.1791 3.90835C19.0611 4.86097 19.7227 5.92825 20.1637 7.1102C20.6224 8.2745 20.8517 9.46527 20.8517 10.6825V11.2647C20.8517 12.3584 20.6312 13.4874 20.1902 14.6517C19.7668 15.816 19.1229 16.901 18.2585 17.9065C17.3941 18.8944 16.3091 19.6971 15.0037 20.3145C13.6983 20.9143 12.1723 21.2142 10.4258 21.2142ZM10.4258 16.6099C11.2726 16.6099 12.0312 16.4688 12.7015 16.1865C13.3719 15.9042 13.9452 15.5073 14.4215 14.9957C14.8978 14.4841 15.2595 13.8932 15.5065 13.2228C15.7534 12.5348 15.8769 11.7939 15.8769 11C15.8769 10.1533 15.7446 9.38589 15.48 8.69789C15.233 8.00989 14.8714 7.41891 14.3951 6.92497C13.9188 6.43102 13.3454 6.05173 12.6751 5.78712C12.0047 5.5225 11.255 5.3902 10.4258 5.3902C9.57908 5.3902 8.82051 5.5225 8.15015 5.78712C7.4798 6.05173 6.90646 6.43102 6.43015 6.92497C5.95385 7.41891 5.59221 8.00989 5.34523 8.69789C5.09826 9.38589 4.97477 10.1533 4.97477 11C4.97477 11.7939 5.09826 12.5348 5.34523 13.2228C5.59221 13.8932 5.95385 14.4841 6.43015 14.9957C6.90646 15.5073 7.4798 15.9042 8.15015 16.1865C8.82051 16.4688 9.57908 16.6099 10.4258 16.6099Z" fill="white"/>
<path d="M23.8222 20.685V1.20927H28.7441V20.685H23.8222ZM35.4653 20.685L30.0407 12.4819H35.3859L41.1281 20.685H35.4653ZM27.5004 14.7576V10.9736H32.1311C32.7133 10.9736 33.2161 10.8589 33.6394 10.6296C34.0628 10.4002 34.3892 10.0739 34.6185 9.6505C34.8655 9.22712 34.989 8.73317 34.989 8.16866C34.989 7.5865 34.8655 7.08373 34.6185 6.66035C34.3892 6.23697 34.0628 5.91061 33.6394 5.68127C33.2161 5.45194 32.7133 5.33727 32.1311 5.33727H27.5004V1.20927H31.8401C33.516 1.20927 34.9625 1.46507 36.1797 1.97666C37.397 2.47061 38.332 3.21153 38.9847 4.19943C39.6374 5.16968 39.9637 6.37809 39.9637 7.82466V8.24804C39.9637 9.69461 39.6286 10.903 38.9582 11.8733C38.3055 12.8259 37.3705 13.5492 36.1533 14.0431C34.9537 14.5194 33.516 14.7576 31.8401 14.7576H27.5004Z" fill="white"/>
<path d="M52.5441 21.2142C50.7271 21.2142 49.1659 20.9143 47.8604 20.3145C46.555 19.6971 45.4877 18.8944 44.6586 17.9065C43.8295 16.9186 43.2209 15.8425 42.8328 14.6782C42.4447 13.5139 42.2506 12.376 42.2506 11.2647V10.6825C42.2506 9.48291 42.4535 8.30097 42.8592 7.13666C43.265 5.95471 43.8736 4.88743 44.6851 3.93481C45.5142 2.9822 46.5462 2.22363 47.7811 1.65912C49.0159 1.07697 50.4625 0.785889 52.1208 0.785889C53.9025 0.785889 55.4726 1.11225 56.8309 1.76497C58.2069 2.41768 59.3095 3.3262 60.1386 4.4905C60.9677 5.63717 61.4529 6.96907 61.594 8.4862H56.6721C56.5663 7.90404 56.3105 7.38363 55.9048 6.92497C55.499 6.44866 54.9698 6.0782 54.3171 5.81358C53.682 5.53133 52.9499 5.3902 52.1208 5.3902C51.3269 5.3902 50.6213 5.53133 50.0038 5.81358C49.404 6.0782 48.8924 6.4663 48.4691 6.97789C48.0633 7.47184 47.7546 8.06281 47.5429 8.75081C47.3312 9.43881 47.2254 10.1886 47.2254 11C47.2254 11.8115 47.34 12.5701 47.5694 13.2757C47.7987 13.9637 48.1339 14.5724 48.5749 15.1016C49.0159 15.6132 49.5716 16.0101 50.242 16.2924C50.9123 16.5746 51.6797 16.7157 52.5441 16.7157C53.6379 16.7157 54.5817 16.4864 55.3755 16.0277C56.1694 15.5691 56.7251 14.9605 57.0426 14.2019L56.6721 17.1127V12.9053H61.1706V16.8745C60.3591 18.2681 59.2036 19.3442 57.7041 20.1028C56.2223 20.8437 54.5023 21.2142 52.5441 21.2142ZM52.0149 13.8579V10.4179H62.7583V13.8579H52.0149Z" fill="white"/>
<path d="M65.2988 20.685V1.36804H70.2206V20.685H65.2988Z" fill="white"/>
<path d="M74.187 20.685V1.36804H82.2578L88.6879 16.7687H89.6141L89.0848 17.245V1.36804H93.6891V20.685H85.5655L79.1353 5.28435H78.2091L78.7384 4.80804V20.685H74.187Z" fill="white"/>
</svg>
