<svg width="64" height="64" viewBox="0 0 64 64" fill="none" xmlns="http://www.w3.org/2000/svg">
<rect width="64" height="64" rx="32" fill="#3B82F6"/>
<path d="M46.7128 25.7126L42.9378 29.4751C42.1878 38.2126 34.8128 45.0001 26.0003 45.0001C24.1878 45.0001 22.6878 44.7126 21.5503 44.1501C20.6378 43.6876 20.2628 43.2001 20.1628 43.0501C20.0801 42.9244 20.0268 42.7817 20.0069 42.6326C19.9869 42.4835 20.0009 42.3318 20.0478 42.1888C20.0946 42.0458 20.1732 41.9152 20.2775 41.8068C20.3818 41.6984 20.5093 41.6149 20.6503 41.5626C20.6753 41.5501 23.6253 40.4251 25.5378 38.2626C24.3518 37.4181 23.3093 36.3883 22.4503 35.2126C20.7378 32.8876 18.9253 28.8501 20.0128 22.8251C20.047 22.646 20.1289 22.4794 20.25 22.343C20.371 22.2066 20.5266 22.1054 20.7003 22.0501C20.8746 21.993 21.0613 21.985 21.2399 22.0269C21.4185 22.0688 21.5821 22.159 21.7128 22.2876C21.7503 22.3376 25.9128 26.4376 31.0003 27.7626V27.0001C31.0052 26.2073 31.1663 25.4231 31.4742 24.6925C31.7822 23.9619 32.231 23.2991 32.7952 22.7419C33.3593 22.1848 34.0276 21.7442 34.762 21.4453C35.4964 21.1465 36.2825 20.9952 37.0753 21.0001C38.1159 21.015 39.135 21.2991 40.0331 21.8248C40.9313 22.3506 41.6779 23.1 42.2003 24.0001H46.0003C46.1978 23.9995 46.3909 24.0573 46.5556 24.1663C46.7202 24.2753 46.8488 24.4306 46.9253 24.6126C46.9974 24.7973 47.0157 24.9987 46.978 25.1933C46.9404 25.388 46.8485 25.568 46.7128 25.7126Z" fill="white"/>
</svg>
