<svg width="64" height="64" viewBox="0 0 64 64" fill="none" xmlns="http://www.w3.org/2000/svg">
<rect width="64" height="64" rx="32" fill="#3B82F6"/>
<path d="M45.2875 24.7248C45.1726 24.264 44.9477 23.8378 44.632 23.483C44.3163 23.1281 43.9193 22.8551 43.475 22.6873C39.2 21.0373 32.375 21.0498 32 21.0498C31.625 21.0498 24.8 21.0373 20.525 22.6873C20.0807 22.8551 19.6837 23.1281 19.368 23.483C19.0523 23.8378 18.8274 24.264 18.7125 24.7248C18.3875 25.9623 18 28.2373 18 31.9998C18 35.7623 18.3875 38.0373 18.7125 39.2748C18.8274 39.7357 19.0523 40.1618 19.368 40.5166C19.6837 40.8715 20.0807 41.1445 20.525 41.3123C24.625 42.8998 31.05 42.9498 31.9125 42.9498H32.0875C32.95 42.9498 39.375 42.8998 43.475 41.3123C43.9193 41.1445 44.3163 40.8715 44.632 40.5166C44.9477 40.1618 45.1726 39.7357 45.2875 39.2748C45.6125 38.0373 46 35.7623 46 31.9998C46 28.2373 45.6125 25.9623 45.2875 24.7248ZM36.275 32.4123L30.275 36.4123C30.1954 36.4709 30.0988 36.5016 30 36.4998C29.9172 36.4967 29.8361 36.4754 29.7625 36.4373C29.6826 36.3957 29.6158 36.3329 29.5694 36.2556C29.5231 36.1784 29.4991 36.0899 29.5 35.9998V27.9998C29.4991 27.9098 29.5231 27.8212 29.5694 27.744C29.6158 27.6667 29.6826 27.6039 29.7625 27.5623C29.8422 27.5198 29.932 27.4997 30.0222 27.5041C30.1124 27.5085 30.1998 27.5372 30.275 27.5873L36.275 31.5873C36.3447 31.6312 36.4022 31.6921 36.442 31.7642C36.4818 31.8364 36.5027 31.9174 36.5027 31.9998C36.5027 32.0822 36.4818 32.1633 36.442 32.2354C36.4022 32.3075 36.3447 32.3684 36.275 32.4123Z" fill="white"/>
</svg>
